<?xml version="1.0" standalone="no"?><svg xmlns="http://www.w3.org/2000/svg" viewBox="0 0 1440 320"><path fill="#0099ff" fill-opacity="1" d="M0,192L26.7,165.3C53.3,139,107,85,160,53.3C213.3,21,267,11,320,58.7C373.3,107,427,213,480,229.3C533.3,245,587,171,640,160C693.3,149,747,203,800,229.3C853.3,256,907,256,960,224C1013.3,192,1067,128,1120,90.7C1173.3,53,1227,43,1280,85.3C1333.3,128,1387,224,1413,272L1440,320L1440,320L1413.3,320C1386.7,320,1333,320,1280,320C1226.7,320,1173,320,1120,320C1066.7,320,1013,320,960,320C906.7,320,853,320,800,320C746.7,320,693,320,640,320C586.7,320,533,320,480,320C426.7,320,373,320,320,320C266.7,320,213,320,160,320C106.7,320,53,320,27,320L0,320Z"></path></svg>